<svg xmlns="http://www.w3.org/2000/svg" aria-hidden="true">
  <symbol id="alert" viewBox="0 0 24 24"><path d="M12 3 3.8 18a2 2 0 0 0 1.76 3h12.88A2 2 0 0 0 20.2 18L12 3Z" fill="none" stroke="currentColor" stroke-width="1.8" stroke-linejoin="round"/><path d="M12 9v4.5M12 17h.01" fill="none" stroke="currentColor" stroke-width="1.8" stroke-linecap="round"/></symbol>
  <symbol id="bold" viewBox="0 0 24 24"><path d="M7 5h6a4 4 0 0 1 0 8H7zm0 8h7a4 4 0 0 1 0 8H7z" fill="none" stroke="currentColor" stroke-width="1.9" stroke-linejoin="round"/></symbol>
  <symbol id="check" viewBox="0 0 24 24"><path d="m5 12 4.2 4.2L19 6.5" fill="none" stroke="currentColor" stroke-width="1.9" stroke-linecap="round" stroke-linejoin="round"/></symbol>
  <symbol id="chevron-down" viewBox="0 0 24 24"><path d="m6 9 6 6 6-6" fill="none" stroke="currentColor" stroke-width="1.9" stroke-linecap="round" stroke-linejoin="round"/></symbol>
  <symbol id="chevron-left" viewBox="0 0 24 24"><path d="m15 18-6-6 6-6" fill="none" stroke="currentColor" stroke-width="1.9" stroke-linecap="round" stroke-linejoin="round"/></symbol>
  <symbol id="chevron-right" viewBox="0 0 24 24"><path d="m9 18 6-6-6-6" fill="none" stroke="currentColor" stroke-width="1.9" stroke-linecap="round" stroke-linejoin="round"/></symbol>
  <symbol id="chevron-up" viewBox="0 0 24 24"><path d="m6 15 6-6 6 6" fill="none" stroke="currentColor" stroke-width="1.9" stroke-linecap="round" stroke-linejoin="round"/></symbol>
  <symbol id="minus" viewBox="0 0 24 24"><path d="M5 12h14" fill="none" stroke="currentColor" stroke-width="1.9" stroke-linecap="round"/></symbol>
  <symbol id="plus" viewBox="0 0 24 24"><path d="M12 5v14M5 12h14" fill="none" stroke="currentColor" stroke-width="1.9" stroke-linecap="round"/></symbol>
  <symbol id="spinner" viewBox="0 0 24 24"><path d="M12 3a9 9 0 1 0 9 9" fill="none" stroke="currentColor" stroke-width="1.9" stroke-linecap="round"/></symbol>
  <symbol id="trash" viewBox="0 0 24 24"><path d="M4 7h16M10 11v6M14 11v6M9 7l1-3h4l1 3M6.5 7l.8 13h9.4l.8-13" fill="none" stroke="currentColor" stroke-width="1.8" stroke-linecap="round" stroke-linejoin="round"/></symbol>
  <symbol id="unsaved" viewBox="0 0 24 24"><circle cx="12" cy="12" r="3.5" fill="currentColor"/></symbol>
  <symbol id="cursor" viewBox="0 0 24 24"><path d="M5 3.5 18.5 12l-6.1 1.2-3.3 6.1L5 3.5Z" fill="none" stroke="currentColor" stroke-width="1.8" stroke-linejoin="round"/><path d="m12.4 13.2 4.1 4.1" fill="none" stroke="currentColor" stroke-width="1.8" stroke-linecap="round"/></symbol>
  <symbol id="rect-select" viewBox="0 0 24 24"><rect x="4.5" y="5.5" width="15" height="13" rx="1.5" fill="none" stroke="currentColor" stroke-width="1.7" stroke-dasharray="3 2"/><path d="M8 9h8M8 12h5.5" fill="none" stroke="currentColor" stroke-width="1.5" stroke-linecap="round"/></symbol>
  <symbol id="ellipse-select" viewBox="0 0 24 24"><ellipse cx="12" cy="12" rx="8" ry="6.5" fill="none" stroke="currentColor" stroke-width="1.7" stroke-dasharray="3 2"/><path d="M8.5 10.5h7M9.5 13.5h5" fill="none" stroke="currentColor" stroke-width="1.5" stroke-linecap="round"/></symbol>
  <symbol id="brush" viewBox="0 0 24 24"><path d="m14.5 4.5 5 5-8.8 8.8a4 4 0 0 1-5.7 0l-.3-.3a4 4 0 0 1 0-5.7l9.8-7.8Z" fill="none" stroke="currentColor" stroke-width="1.7" stroke-linejoin="round"/><path d="M4.5 19.5c2.5.4 4.2-.2 5.3-1.7" fill="none" stroke="currentColor" stroke-width="1.7" stroke-linecap="round"/></symbol>
  <symbol id="eraser" viewBox="0 0 24 24"><path d="m8 5 10.5 10.5-5 5H8L3.5 16 8 5Z" fill="none" stroke="currentColor" stroke-width="1.7" stroke-linejoin="round"/><path d="m6.2 13.3 6.5 6.5M13 20.5h7.5" fill="none" stroke="currentColor" stroke-width="1.7" stroke-linecap="round"/></symbol>
  <symbol id="hand" viewBox="0 0 24 24"><path d="M7.5 11V6.5a1.5 1.5 0 0 1 3 0V10m0-4.5a1.5 1.5 0 0 1 3 0V10m0-3.5a1.5 1.5 0 0 1 3 0v4m0-2a1.5 1.5 0 0 1 3 0v4.7c0 4.2-2.6 7.3-7 7.3h-1.2c-2.1 0-3.7-.8-4.9-2.5l-3-4.2a1.7 1.7 0 0 1 2.5-2.2L7.5 13V11Z" fill="none" stroke="currentColor" stroke-width="1.7" stroke-linecap="round" stroke-linejoin="round"/></symbol>
  <symbol id="zoom" viewBox="0 0 24 24"><circle cx="10.5" cy="10.5" r="6.5" fill="none" stroke="currentColor" stroke-width="1.8"/><path d="m15.2 15.2 5 5M10.5 7.5v6M7.5 10.5h6" fill="none" stroke="currentColor" stroke-width="1.8" stroke-linecap="round"/></symbol>
  <symbol id="settings" viewBox="0 0 24 24"><circle cx="12" cy="12" r="3" fill="none" stroke="currentColor" stroke-width="1.8"/><path d="M12 3v2M12 19v2M3 12h2M19 12h2M5.6 5.6 7 7M17 17l1.4 1.4M18.4 5.6 17 7M7 17l-1.4 1.4" fill="none" stroke="currentColor" stroke-width="1.8" stroke-linecap="round"/></symbol>
  <symbol id="more" viewBox="0 0 24 24"><path d="M5 12h.01M12 12h.01M19 12h.01" fill="none" stroke="currentColor" stroke-width="3" stroke-linecap="round"/></symbol>
  <symbol id="close" viewBox="0 0 24 24"><path d="M6 6l12 12M18 6 6 18" fill="none" stroke="currentColor" stroke-width="1.9" stroke-linecap="round"/></symbol>
</svg>
